<?xml version="1.0" standalone="no"?>
<!DOCTYPE svg PUBLIC "-//W3C//DTD SVG 1.1//EN" "http://www.w3.org/Graphics/SVG/1.1/DTD/svg11.dtd" >
<svg xmlns="http://www.w3.org/2000/svg" xmlns:xlink="http://www.w3.org/1999/xlink" version="1.1">
<metadata></metadata>
<defs>
<font id="contrastregular" horiz-adv-x="923" >
<font-face units-per-em="2048" ascent="1536" descent="-512" />
<missing-glyph horiz-adv-x="534" />
<glyph horiz-adv-x="0" />
<glyph horiz-adv-x="682" />
<glyph horiz-adv-x="0" />
<glyph horiz-adv-x="0" />
<glyph unicode="&#xd;" horiz-adv-x="534" />
<glyph unicode=" "  horiz-adv-x="534" />
<glyph unicode="&#x09;" horiz-adv-x="534" />
<glyph unicode="&#xa0;" horiz-adv-x="534" />
<glyph unicode="!" horiz-adv-x="389" d="M0 109q0 47 42.5 77.5t104.5 30.5t105 -30.5t43 -77.5q0 -44 -43.5 -76.5t-104.5 -32.5t-104 32t-43 77zM78 326v1226h121v-1226h-121z" />
<glyph unicode="&#x22;" horiz-adv-x="505" d="M18 1270v266h123v-266h-123zM201 1270v266h123v-266h-123z" />
<glyph unicode="#" horiz-adv-x="915" d="M0 528v123h807v-123h-807zM0 838v123h807v-123h-807zM186 336v807h123v-807h-123zM496 336v807h122v-807h-122z" />
<glyph unicode="$" d="M0 410h295q0 -117 37 -200t90 -83q52 0 88.5 85t36.5 208q0 121 -36.5 206t-88.5 85q-177 0 -299.5 122.5t-122.5 299.5q0 158 103 275t257 142v103h123v-103q153 -25 254 -139t105 -270h-295q0 120 -37 205.5t-88 85.5q-52 0 -89.5 -86.5t-37.5 -208.5q0 -123 37 -208 t90 -85q173 0 296.5 -125t123.5 -297q0 -158 -102.5 -275.5t-256.5 -142.5v-117h-123v117q-150 20 -252.5 136t-107.5 270z" />
<glyph unicode="%" horiz-adv-x="1933" d="M0 1196q0 147 123 251.5t295 104.5q173 0 296.5 -104t123.5 -252q0 -149 -123 -253.5t-297 -104.5q-172 0 -295 104.5t-123 253.5zM295 1194q0 -98 35.5 -165.5t89.5 -67.5q53 0 90 68t37 165t-37.5 166.5t-89.5 69.5q-53 0 -89 -69t-36 -167zM418 59l866 1491l107 -61 l-867 -1491zM973 360q0 97 56.5 179t152.5 130t209 48q173 0 296 -104.5t123 -252.5q0 -149 -122.5 -253.5t-296.5 -104.5q-172 0 -295 104.5t-123 253.5zM1268 358q0 -98 35.5 -165.5t89.5 -67.5q53 0 90 68t37 165t-37.5 166.5t-89.5 69.5q-53 0 -89 -69t-36 -167z" />
<glyph unicode="&#x26;" horiz-adv-x="980" d="M0 481q0 117 45.5 217.5t124.5 167.5l-96 129l-17 23q-57 77 -57 180q0 148 123.5 252t296.5 104t296.5 -104t123.5 -252q0 -97 -53.5 -177t-147.5 -128q-101 -53 -219 -53q-39 0 -66 -56l279 -374h205q-16 -109 -64 -189l166 -221h-123l-102 137q-118 -137 -295 -137 q-173 0 -296.5 141t-123.5 340zM295 481q0 -151 35.5 -254.5t89.5 -103.5q42 0 75.5 69t45.5 179l-228 303q-18 -83 -18 -193zM295 1196q0 -98 35.5 -165.5t89.5 -67.5q53 0 90 68t37 165t-37.5 166.5t-89.5 69.5q-53 0 -89 -69t-36 -167z" />
<glyph unicode="'" horiz-adv-x="307" d="M18 1270v266h123v-266h-123z" />
<glyph unicode="(" horiz-adv-x="661" d="M2 774q0 252 75 466t203.5 338t278.5 124v-125q-75 0 -137.5 -107.5t-98.5 -291.5t-36 -402t36 -402t98.5 -291.5t137.5 -107.5v-127q-112 0 -215 73.5t-178 197.5t-119.5 295.5t-44.5 359.5z" />
<glyph unicode=")" horiz-adv-x="679" d="M2 -25q75 0 137.5 107.5t98.5 291.5t36 402t-36 402t-98.5 291.5t-137.5 107.5v127q112 0 215 -73.5t178 -197.5t119.5 -295.5t44.5 -359.5q0 -252 -75 -466t-203.5 -338t-278.5 -124v125z" />
<glyph unicode="*" horiz-adv-x="667" d="M18 991l205 203l-203 203l86 86l144 -142v211h123v-209l139 140l86 -86l-201 -203l205 -205l-86 -86l-143 144v-209h-123v209l-144 -144z" />
<glyph unicode="+" horiz-adv-x="946" d="M0 612v123h344v342h121v-342h342v-123h-342v-342h-121v342h-344z" />
<glyph unicode="," horiz-adv-x="389" d="M0 106q0 45 43 77t104 32t104.5 -32.5t43.5 -76.5q0 -17 -6 -32l-8 -15l-115 -213h-121l80 154q-54 4 -89.5 34.5t-35.5 71.5z" />
<glyph unicode="-" horiz-adv-x="595" d="M0 840v123h504v-123h-504z" />
<glyph unicode="." horiz-adv-x="385" d="M0 109q0 47 42.5 77.5t104.5 30.5t105 -30.5t43 -77.5q0 -44 -43.5 -76.5t-104.5 -32.5t-104 32t-43 77z" />
<glyph unicode="/" horiz-adv-x="1048" d="M0 59l866 1491l107 -61l-867 -1491z" />
<glyph unicode="0" horiz-adv-x="1220" d="M0 776q0 211 75 390.5t203.5 283.5t278.5 104t278 -104t202.5 -283.5t74.5 -390.5q0 -209 -74.5 -388t-202.5 -283.5t-278 -104.5t-278.5 104.5t-203.5 283.5t-75 388zM295 776q0 -177 35 -327.5t95 -238t130 -87.5q71 0 131.5 87.5t95.5 238t35 327.5q0 178 -35 329 t-95.5 239t-131.5 88q-70 0 -130 -88t-95 -239t-35 -329zM449 797q0 62 30.5 104.5t77.5 42.5q45 0 77 -43t32 -104q0 -60 -32.5 -104t-76.5 -44q-46 0 -77 43.5t-31 104.5z" />
<glyph unicode="1" horiz-adv-x="356" d="M0 1432v122h123h123v-1554h-123v1432h-123z" />
<glyph unicode="2" horiz-adv-x="1132" d="M0 0v123h489q71 0 132 87.5t96 238t35 327.5q0 178 -35 329t-96 239t-132 88q-66 0 -122.5 -78.5t-92.5 -212.5h-274q70 187 202 300t290 113q150 0 278 -104t202.5 -283.5t74.5 -390.5q0 -204 -68.5 -375.5t-187.5 -277.5h256v-123h-1047z" />
<glyph unicode="3" horiz-adv-x="954" d="M0 1198q0 148 123.5 252t296.5 104q177 0 299.5 -104t122.5 -252q0 -97 -54.5 -177t-148.5 -128q94 -67 148.5 -175.5t54.5 -236.5q0 -131 -56 -241.5t-153 -175t-213 -64.5q-159 0 -275 117.5t-141 292.5h293q11 -124 45 -205.5t78 -81.5q53 0 90 104.5t37 253.5 t-37 254t-90 105v123q53 0 90 68t37 165t-37.5 166.5t-89.5 69.5q-53 0 -89 -69t-36 -167q0 -19 4 -55h-293q-6 27 -6 57z" />
<glyph unicode="4" horiz-adv-x="929" d="M0 838v125l596 591h123v-591h123v-125h-123v-838h-123v838h-596zM152 963h444v442z" />
<glyph unicode="5" horiz-adv-x="946" d="M2 840v714h840v-122h-717v-469h297q173 0 296.5 -141.5t123.5 -340.5t-123.5 -340t-296.5 -141q-159 0 -275 117.5t-141 292.5h293q11 -124 45 -205.5t78 -81.5q53 0 90 104.5t37 253.5t-37 254t-90 105h-420z" />
<glyph unicode="6" horiz-adv-x="933" d="M0 481q0 72 23 156l272 917h61h62l-191 -647q89 56 193 56q173 0 296.5 -141.5t123.5 -340.5t-123.5 -340t-296.5 -141t-296.5 141t-123.5 340zM295 481q0 -151 35.5 -254.5t89.5 -103.5q53 0 90 104.5t37 253.5t-37 254t-90 105q-54 0 -89.5 -104t-35.5 -255z" />
<glyph unicode="7" d="M0 0l719 1432h-719v122h840v-122l-717 -1432h-123z" />
<glyph unicode="8" horiz-adv-x="933" d="M0 481q0 129 53.5 237t147.5 175q-94 48 -147.5 128t-53.5 177q0 148 123.5 252t296.5 104q177 0 299.5 -104t122.5 -252q0 -97 -54.5 -177t-148.5 -128q94 -67 148.5 -175.5t54.5 -236.5q0 -131 -56 -241.5t-153 -175t-213 -64.5q-173 0 -296.5 141t-123.5 340zM295 481 q0 -151 35.5 -254.5t89.5 -103.5q53 0 90 104.5t37 253.5t-37 254t-90 105q-54 0 -89.5 -104t-35.5 -255zM295 1196q0 -98 35.5 -165.5t89.5 -67.5q53 0 90 68t37 165t-37.5 166.5t-89.5 69.5q-53 0 -89 -69t-36 -167z" />
<glyph unicode="9" horiz-adv-x="927" d="M0 1198q0 148 123.5 253t296.5 105t296.5 -105t123.5 -253q0 -32 -6 -59l-289 -1141h-123l227 899q-100 -59 -229 -59q-173 0 -296.5 106t-123.5 254zM295 1194q0 -98 35.5 -165.5t89.5 -67.5q52 0 88.5 68t36.5 165t-36.5 166.5t-88.5 69.5q-53 0 -89 -69t-36 -167z" />
<glyph unicode=":" horiz-adv-x="382" d="M0 109q0 47 42.5 77.5t104.5 30.5t105 -30.5t43 -77.5q0 -44 -43.5 -76.5t-104.5 -32.5t-104 32t-43 77zM0 764q0 47 42.5 77.5t104.5 30.5t105 -30.5t43 -77.5q0 -44 -43.5 -76.5t-104.5 -32.5t-104 32t-43 77z" />
<glyph unicode=";" horiz-adv-x="380" d="M0 106q0 45 43 77t104 32t104.5 -32.5t43.5 -76.5q0 -17 -6 -32l-8 -15l-115 -213h-121l80 154q-54 4 -89.5 34.5t-35.5 71.5zM0 764q0 47 42.5 77.5t104.5 30.5t105 -30.5t43 -77.5q0 -44 -43.5 -76.5t-104.5 -32.5t-104 32t-43 77z" />
<glyph unicode="&#x3c;" horiz-adv-x="948" d="M0 504v221l756 360l51 -110l-754 -361l754 -358l-51 -111z" />
<glyph unicode="=" horiz-adv-x="921" d="M0 528v123h807v-123h-807zM0 838v123h807v-123h-807z" />
<glyph unicode="&#x3e;" horiz-adv-x="915" d="M2 254l754 360l-754 359l51 110l756 -358v-221l-756 -361z" />
<glyph unicode="?" horiz-adv-x="921" d="M0 1141q5 172 127 292.5t293 120.5q174 0 297 -122.5t123 -298.5q0 -158 -103 -277t-256 -139v-391h-121v518h62q52 0 88.5 85t36.5 208q0 122 -36.5 208.5t-88.5 86.5t-89.5 -85.5t-37.5 -205.5h-295zM274 109q0 44 43.5 76t104.5 32t104 -32t43 -76q0 -47 -42.5 -78 t-104.5 -31t-105 31t-43 78z" />
<glyph unicode="@" horiz-adv-x="1519" d="M0 838q0 145 57 278t153 228.5t228.5 152.5t278.5 57q145 0 277.5 -57t228.5 -152.5t152.5 -228t56.5 -278.5q0 -208 -113 -385v-2q-25 -37 -66 -59.5t-88 -22.5q-79 0 -133.5 54.5t-54.5 133.5v35q-123 -107 -299 -107q-173 0 -296.5 104.5t-123.5 252.5 q0 149 123 253.5t297 104.5q177 0 299 -106v106h123v-643q0 -29 17 -47t42 -18q24 0 39 18h2q103 157 103 332q0 161 -78.5 297t-214.5 214.5t-297 78.5t-297 -78.5t-214.5 -214.5t-78.5 -297t78.5 -297t214.5 -214.5t297 -78.5q118 0 223 45l53 -121q-130 -53 -272 -53 q-146 0 -278.5 56.5t-228.5 152.5t-153 228.5t-57 277.5zM553 842q0 -98 36 -166t89 -68t90 68.5t37 165.5t-37 165t-90 68q-54 0 -89.5 -67.5t-35.5 -165.5z" />
<glyph unicode="A" d="M0 0l358 1554h123l361 -1554h-123l-148 639h-301l-147 -639h-123zM299 762h244l-123 526z" />
<glyph unicode="B" horiz-adv-x="927" d="M0 0v1554h123v-104q125 104 297 104q177 0 299.5 -104t122.5 -252q0 -97 -54.5 -177t-148.5 -128q94 -67 148.5 -175.5t54.5 -236.5q0 -131 -56 -241.5t-153 -175t-213 -64.5q-85 0 -162 37t-135 104v-141h-123zM123 821q37 40 80 72q-44 20 -80 53v-125zM295 481 q0 -151 35.5 -254.5t89.5 -103.5q53 0 90 104.5t37 253.5t-37 254t-90 105q-54 0 -89.5 -104t-35.5 -255zM295 1196q0 -98 35.5 -165.5t89.5 -67.5q53 0 90 68t37 165t-37.5 166.5t-89.5 69.5q-53 0 -89 -69t-36 -167z" />
<glyph unicode="C" horiz-adv-x="1159" d="M20 776q0 211 75.5 390.5t204 283.5t278.5 104q157 0 288 -112.5t201 -300.5h-274q-36 134 -93.5 212.5t-124.5 78.5q-70 0 -130 -88t-95 -239t-35 -329q0 -177 35 -327.5t95 -238t130 -87.5q67 0 124.5 77.5t93.5 209.5h274q-70 -186 -201.5 -298t-287.5 -112 q-150 0 -278.5 104.5t-204 283.5t-75.5 388z" />
<glyph unicode="D" horiz-adv-x="1216" d="M20 0v1554h123v-290q79 137 191 213.5t241 76.5q150 0 278.5 -104t204 -283.5t75.5 -390.5q0 -209 -75.5 -388t-204 -283.5t-278.5 -104.5q-128 0 -240.5 76.5t-191.5 212.5v-289h-123zM315 776q0 -177 35 -327.5t95 -238t130 -87.5q71 0 132 87.5t96 238t35 327.5 q0 178 -35 329t-96 239t-132 88q-70 0 -130 -88t-95 -239t-35 -329z" />
<glyph unicode="E" horiz-adv-x="985" d="M20 0v123v1309v122h842v-122h-719v-594h719v-123h-719v-592h719v-123h-842z" />
<glyph unicode="F" horiz-adv-x="964" d="M20 0v123v1309v122h842v-122h-719v-594h719v-123h-719v-715h-123z" />
<glyph unicode="G" horiz-adv-x="1222" d="M20 784q0 213 75.5 394t204 286t278.5 105q156 0 287.5 -113.5t201.5 -300.5h-274v2q-36 133 -94 211t-124 78q-70 0 -130 -87.5t-95 -238.5t-35 -329q0 -177 35 -327.5t95 -238.5t130 -88q101 0 177.5 172t83.5 420h-209v123h503q3 -35 3 -68q0 -160 -44 -305 t-118.5 -250t-177.5 -167t-215 -62q-150 0 -278.5 104.5t-204 285.5t-75.5 394z" />
<glyph unicode="H" horiz-adv-x="948" d="M20 0v1554h123v-716h598v716h123v-1554h-123v715h-598v-715h-123z" />
<glyph unicode="I" horiz-adv-x="286" d="M20 0v1554h123v-1554h-123z" />
<glyph unicode="J" horiz-adv-x="1126" d="M0 410h274q36 -132 92.5 -209.5t122.5 -77.5q71 0 132 87.5t96 238t35 327.5v778h295v-778q0 -209 -74.5 -388t-202.5 -283.5t-278 -104.5q-158 0 -290 112t-202 298z" />
<glyph unicode="K" horiz-adv-x="929" d="M0 0v1554h123v-778l596 778h127l-598 -778l594 -776h-123l-533 694l-63 -82v-612h-123z" />
<glyph unicode="L" horiz-adv-x="964" d="M20 0v1554h123v-1431h719v-123h-719h-123z" />
<glyph unicode="M" horiz-adv-x="1222" d="M20 0l123 1554h123l312 -1298l311 1298h123l121 -1554h-123l-90 1167l-281 -1167h-123l-280 1169l-93 -1169h-123z" />
<glyph unicode="N" horiz-adv-x="944" d="M20 0v1554h123l596 -1290v1290h123v-1554h-123l-596 1288v-1288h-123z" />
<glyph unicode="O" horiz-adv-x="1224" d="M20 776q0 211 75.5 390.5t204 283.5t278.5 104t278 -104t202.5 -283.5t74.5 -390.5q0 -209 -74.5 -388t-202.5 -283.5t-278 -104.5t-278.5 104.5t-204 283.5t-75.5 388zM315 776q0 -177 35 -327.5t95 -238t130 -87.5q71 0 132 87.5t96 238t35 327.5q0 178 -35 329 t-96 239t-132 88q-70 0 -130 -88t-95 -239t-35 -329z" />
<glyph unicode="P" horiz-adv-x="942" d="M20 0v1554h123v-104q125 104 297 104q177 0 299.5 -104t122.5 -252q0 -149 -122.5 -253.5t-299.5 -104.5q-172 0 -297 104v-944h-123zM315 1196q0 -98 35.5 -165.5t89.5 -67.5q53 0 90 68t37 165t-37.5 166.5t-89.5 69.5q-53 0 -89 -69t-36 -167z" />
<glyph unicode="Q" horiz-adv-x="1187" d="M0 776q0 211 75 390.5t203.5 283.5t278.5 104t278 -104t202.5 -283.5t74.5 -390.5q0 -204 -68.5 -375.5t-187.5 -277.5h256v-123h-553h-2q-150 0 -278.5 104.5t-203.5 283.5t-75 388zM295 776q0 -177 35 -327.5t95.5 -238t131.5 -87.5q69 0 129 87.5t95.5 238t35.5 327.5 q0 178 -35.5 329.5t-95.5 239t-129 87.5q-71 0 -131.5 -88t-95.5 -239t-35 -329z" />
<glyph unicode="R" horiz-adv-x="909" d="M0 0v1554h123v-104q125 104 297 104q177 0 299.5 -104t122.5 -252q0 -97 -54.5 -177t-148.5 -128q94 -67 148.5 -175.5t54.5 -236.5v-481h-295v481q0 149 -37 254t-90 105q-172 0 -297 104v-944h-123zM295 1196q0 -98 35.5 -165.5t89.5 -67.5q53 0 90 68t37 165 t-37.5 166.5t-89.5 69.5q-53 0 -89 -69t-36 -167z" />
<glyph unicode="S" d="M0 410h295q0 -116 37.5 -199.5t87.5 -83.5q53 0 90 85t37 208q0 120 -37.5 205.5t-89.5 85.5q-174 0 -297 123t-123 299t123 298.5t297 122.5q172 0 294.5 -120.5t127.5 -292.5h-295q0 120 -37.5 205.5t-89.5 85.5q-53 0 -89 -86t-36 -209q0 -124 35.5 -208.5t89.5 -84.5 q176 0 299 -124.5t123 -297.5q0 -177 -122.5 -299.5t-299.5 -122.5q-171 0 -293.5 119.5t-126.5 290.5z" />
<glyph unicode="T" horiz-adv-x="1183" d="M20 1432v122h1113v-122h-494v-1432h-123v1432h-496z" />
<glyph unicode="U" horiz-adv-x="1220" d="M20 776v778h295v-778q0 -177 35 -327.5t95 -238t130 -87.5q71 0 132 87.5t96 238t35 327.5v778h295v-778q0 -209 -74.5 -388t-202.5 -283.5t-278 -104.5t-278.5 104.5t-204 283.5t-75.5 388z" />
<glyph unicode="V" horiz-adv-x="1167" d="M4 1554h123l434 -1361l432 1361h123l-493 -1554h-123z" />
<glyph unicode="W" horiz-adv-x="2142" d="M0 1554h123l434 -1361l432 1361h123l434 -1361l432 1361h123l-493 -1554h-123l-434 1362l-433 -1362h-122z" />
<glyph unicode="X" horiz-adv-x="925" d="M0 0l358 776l-358 778h123l297 -645l299 645h121l-359 -778l359 -776h-121l-299 645l-297 -645h-123z" />
<glyph unicode="Y" horiz-adv-x="921" d="M6 1554h123l299 -645l297 645h121l-357 -774v-6v-774h-122v778z" />
<glyph unicode="Z" horiz-adv-x="940" d="M0 0v123l698 1309h-698v122h840v-122l-699 -1309h699v-123h-840z" />
<glyph unicode="[" horiz-adv-x="401" d="M-4 -123l8 1800h123h256v-123h-256l-8 -1554h256v-123h-256h-123z" />
<glyph unicode="\" horiz-adv-x="1046" d="M2 1493l107 61l866 -1491l-107 -61z" />
<glyph unicode="]" horiz-adv-x="526" d="M-4 0h256l8 1554h-256v123h256h123l-8 -1800h-123h-256v123z" />
<glyph unicode="^" horiz-adv-x="1705" d="M4 797l358 755h222l360 -755l-110 -52l-361 754l-358 -754z" />
<glyph unicode="_" horiz-adv-x="1705" d="M2 0v123h934v-123h-934z" />
<glyph unicode="`" horiz-adv-x="354" d="M2 1212l86 86l188 -188l-86 -86z" />
<glyph unicode="a" horiz-adv-x="985" d="M20 481q0 199 123.5 340.5t296.5 141.5q176 0 299 -142v142h123v-963h-123v141q-122 -141 -299 -141q-173 0 -296.5 141t-123.5 340zM315 481q0 -151 35.5 -254.5t89.5 -103.5q53 0 90 104.5t37 253.5t-37 254t-90 105q-54 0 -89.5 -104t-35.5 -255z" />
<glyph unicode="b" horiz-adv-x="929" d="M0 0v1554h123v-733q123 142 299 142q173 0 296.5 -141.5t123.5 -340.5t-123.5 -340t-296.5 -141q-177 0 -299 141v-141h-123zM295 481q0 -149 37 -253.5t90 -104.5q52 0 88.5 104t36.5 254t-36.5 254.5t-88.5 104.5q-53 0 -90 -105t-37 -254z" />
<glyph unicode="c" horiz-adv-x="888" d="M20 481q0 199 123.5 340.5t296.5 141.5q119 0 217.5 -68.5t153.5 -183.5h-272q-40 129 -99 129q-54 0 -89.5 -104t-35.5 -255t35.5 -254.5t89.5 -103.5q59 0 99 129h272q-55 -115 -153.5 -183.5t-217.5 -68.5q-173 0 -296.5 141t-123.5 340z" />
<glyph unicode="d" d="M0 481q0 199 123.5 340.5t296.5 141.5q176 0 299 -142v733h123v-1554h-123v141q-122 -141 -299 -141q-173 0 -296.5 141t-123.5 340zM295 481q0 -151 35.5 -254.5t89.5 -103.5q53 0 90 104.5t37 253.5t-37 254t-90 105q-54 0 -89.5 -104t-35.5 -255z" />
<glyph unicode="e" horiz-adv-x="933" d="M20 481q0 200 123 341t299 141q148 0 262.5 -106t147.5 -267h-530q-7 -61 -7 -109q0 -149 37 -253.5t90 -104.5q29 0 54.5 34t42.5 95h272q-55 -114 -153.5 -183t-215.5 -69q-116 0 -213 64.5t-153 175t-56 241.5zM344 711h195q-17 61 -42.5 95t-54.5 34q-58 0 -98 -129z " />
<glyph unicode="f" horiz-adv-x="997" d="M0 840v123h186v110q0 199 123.5 340t296.5 141q119 0 217.5 -68t153.5 -183h-272q-40 129 -99 129q-54 0 -89.5 -104t-35.5 -255v-110h252v-123h-252v-840h-295v840h-186z" />
<glyph unicode="g" horiz-adv-x="985" d="M20 481q0 199 123.5 340.5t296.5 141.5q176 0 299 -142v142h123v-963v-137q0 -148 -123 -252.5t-299 -104.5q-140 0 -250.5 70t-150.5 180v2h291q18 -59 47 -94t63 -35q52 0 89.5 69.5t37.5 166.5v158q-67 -23 -127 -23q-173 0 -296.5 141t-123.5 340zM315 481 q0 -151 35.5 -254.5t89.5 -103.5q53 0 90 104.5t37 253.5t-37 254t-90 105q-54 0 -89.5 -104t-35.5 -255z" />
<glyph unicode="h" horiz-adv-x="929" d="M0 0v1554h123v-733q58 67 135 104.5t162 37.5q176 0 299 -141t123 -341v-481h-295v481q0 149 -37 254t-90 105q-54 0 -89.5 -104t-35.5 -255v-481h-172h-123z" />
<glyph unicode="i" horiz-adv-x="376" d="M0 1194q0 47 42.5 78t104.5 31t105 -31t43 -78q0 -44 -43.5 -76.5t-104.5 -32.5t-104 32t-43 77zM86 0v963h123v-963h-123z" />
<glyph unicode="j" horiz-adv-x="907" d="M2 -242h289q18 -59 47 -94t65 -35q52 0 88.5 69.5t36.5 166.5v1098h295v-1100q0 -148 -123.5 -252.5t-296.5 -104.5q-142 0 -251.5 69.5t-149.5 180.5v2zM528 1194q0 47 43 78t105 31t104.5 -31t42.5 -78q0 -45 -43 -77t-104 -32t-104.5 32.5t-43.5 76.5z" />
<glyph unicode="k" horiz-adv-x="892" d="M20 0v1554h123v-1073l580 482h139l-579 -482l579 -481h-139l-510 424l-70 -57v-367h-123z" />
<glyph unicode="l" horiz-adv-x="245" d="M20 0v1554h123v-1554h-123z" />
<glyph unicode="m" horiz-adv-x="1501" d="M20 0v963h123v-142q123 142 299 142q155 0 273 -115q118 115 272 115q176 0 299 -141t123 -341v-481h-295v481q0 149 -37 254t-90 105q-54 0 -89.5 -104t-35.5 -255v-481h-295v481q0 150 -36.5 254.5t-88.5 104.5q-53 0 -90 -105t-37 -254v-481h-172h-123z" />
<glyph unicode="n" horiz-adv-x="954" d="M20 0v963h123v-142q123 142 299 142q173 0 296.5 -141.5t123.5 -340.5v-481h-295v481q0 149 -36.5 255t-88.5 106t-89.5 -106.5t-37.5 -254.5v-481h-172h-123z" />
<glyph unicode="o" horiz-adv-x="964" d="M20 481q0 199 123.5 340.5t296.5 141.5q176 0 299 -141t123 -341q0 -131 -56 -241.5t-153 -175t-213 -64.5q-173 0 -296.5 141t-123.5 340zM315 481q0 -149 36 -253.5t89 -104.5q52 0 89.5 105t37.5 253t-37.5 254.5t-89.5 106.5q-53 0 -89 -105.5t-36 -255.5z" />
<glyph unicode="p" horiz-adv-x="925" d="M0 -494v1457h123v-142q123 142 299 142q173 0 296.5 -141.5t123.5 -340.5t-123.5 -340t-296.5 -141q-177 0 -299 141v-635h-123zM295 481q0 -149 37 -253.5t90 -104.5q52 0 88.5 104t36.5 254t-36.5 254.5t-88.5 104.5q-53 0 -90 -105t-37 -254z" />
<glyph unicode="q" d="M0 481q0 200 123 341t299 141q174 0 297 -142v142h123v-1457h-123v635q-122 -141 -297 -141q-116 0 -213 64.5t-153 175t-56 241.5zM295 481q0 -149 37 -253.5t90 -104.5q52 0 88.5 104t36.5 254t-36.5 254.5t-88.5 104.5q-53 0 -90 -105t-37 -254z" />
<glyph unicode="r" horiz-adv-x="862" d="M20 0v963h123v-142q123 142 297 142q119 0 217.5 -68.5t153.5 -183.5h-272q-40 129 -99 129q-54 0 -89.5 -104t-35.5 -255v-481h-172h-123z" />
<glyph unicode="s" horiz-adv-x="919" d="M20 252h295q6 -56 38 -93.5t75 -37.5q47 0 81 44t34 105q0 62 -34 106t-81 44q-168 0 -288 79.5t-120 190.5q0 114 119.5 193.5t288.5 79.5q163 0 279.5 -72.5t128.5 -179.5h-293q-6 56 -38 92.5t-75 36.5q-47 0 -81 -43.5t-34 -106.5q0 -61 33 -104t80 -43h2 q111 0 205 -36.5t148.5 -99.5t54.5 -137q0 -111 -119.5 -190.5t-290.5 -79.5q-161 0 -278.5 73t-129.5 179z" />
<glyph unicode="t" horiz-adv-x="589" d="M20 840v123h173v340h122v-340h172v-123h-172v-840h-122v840h-173z" />
<glyph unicode="u" horiz-adv-x="964" d="M0 481v482h295v-482q0 -149 37 -253.5t90 -104.5q52 0 88.5 104t36.5 254v482h172h123v-963h-123v141q-122 -141 -297 -141q-116 0 -213 64.5t-153 175t-56 241.5z" />
<glyph unicode="v" horiz-adv-x="876" d="M-16 963h122l300 -799l296 799h123l-360 -963h-121z" />
<glyph unicode="w" horiz-adv-x="1609" d="M8 963h123l299 -799l297 799h123l299 -799l297 799h123l-359 -963h-123q-26 68 -110 297q-28 75 -95.5 252t-93.5 250q-27 -74 -94 -251.5t-94 -250.5q-69 -190 -111 -297h-120z" />
<glyph unicode="x" d="M0 0l360 481l-360 482h123l297 -400l299 400h123l-361 -482l361 -481h-123l-299 399l-297 -399h-123z" />
<glyph unicode="y" horiz-adv-x="931" d="M20 963h123l297 -797l2 -2l297 799h123l-543 -1457h-122l184 494z" />
<glyph unicode="z" horiz-adv-x="944" d="M0 0v123l684 717h-684v123h842v-123l-684 -717h684v-123h-842z" />
<glyph unicode="{" horiz-adv-x="741" d="M0 715v123q53 0 90 68t37 165v483v125h4h289h256v-123h-256v-483q0 -93 -49 -171t-135 -126q86 -50 135 -128t49 -169v-479h256v-123h-256h-293v123v481q0 97 -37 165.5t-90 68.5z" />
<glyph unicode="|" horiz-adv-x="284" d="M0 -137v1689h123v-1689h-123z" />
<glyph unicode="}" horiz-adv-x="851" d="M0 -2h256v483q0 93 49 171t135 126q-86 50 -135 128t-49 169v479h-256v123h256h293v-123v-481q0 -97 37 -165t90 -68v-123q-53 0 -90 -68.5t-37 -165.5v-483v-125h-4h-289h-256v123z" />
<glyph unicode="~" horiz-adv-x="1202" d="M-2 580q48 102 153 164.5t236 62.5q130 0 238 -62q20 -14 41 -14q67 0 106 107h283q-48 -102 -153.5 -166t-237.5 -64q-126 0 -224 58q-24 18 -51 18q-32 0 -59 -28t-45 -76h-287z" />
<glyph unicode="&#xa1;" horiz-adv-x="389" d="M0 1444q0 44 43 76t104 32t104.5 -32t43.5 -76q0 -47 -43 -78t-105 -31t-104.5 31t-42.5 78zM96 184v969h121v-969h-121z" />
<glyph unicode="&#xa2;" horiz-adv-x="888" d="M12 481q0 179 103 314.5t256 160.5v2v103h123v-105q99 -17 180.5 -81.5t128.5 -163.5h-273q-37 129 -96 129q-53 0 -90 -105t-37 -254t37 -253.5t90 -104.5q59 0 96 127h273q-48 -99 -128 -164t-179 -82v-100h-121v100q-155 25 -259 160t-104 317z" />
<glyph unicode="&#xa3;" horiz-adv-x="1167" d="M0 840v123h258v235q0 148 122.5 252t295.5 104q138 0 247.5 -70t151.5 -181h-284q-18 59 -47.5 94t-65.5 35q-52 0 -89.5 -69.5t-37.5 -166.5v-233h436v-123h-436v-359q0 -219 -139 -358h682v-123h-965v123q54 0 91.5 104.5t37.5 253.5v359h-258z" />
<glyph unicode="&#xa4;" horiz-adv-x="1705" d="M0 793q0 140 70 264l-64 63l86 86l53 -51q119 119 277 119q155 0 274 -119l54 51l86 -86l-64 -63q70 -116 70 -264q0 -149 -70 -265l64 -63l-86 -88l-52 53q-122 -119 -276 -119q-158 0 -277 119l-53 -53l-86 88l64 63q-70 124 -70 265zM295 793q0 -151 35.5 -255 t89.5 -104q53 0 90 105t37 254t-37 253.5t-90 104.5q-54 0 -89.5 -103.5t-35.5 -254.5z" />
<glyph unicode="&#xa5;" horiz-adv-x="921" d="M6 1554h123l299 -645l297 645h121l-357 -774v-6v-774h-122v778zM39 342v123h807v-123h-807zM39 651v123h807v-123h-807z" />
<glyph unicode="&#xa6;" horiz-adv-x="278" d="M2 -137v846h123v-846h-123zM2 838v714h123v-714h-123z" />
<glyph unicode="&#xa7;" horiz-adv-x="1705" d="M-2 252h295q6 -56 38 -93.5t75 -37.5q47 0 80.5 43.5t33.5 105.5q0 60 -30.5 102.5t-75.5 47.5h-8q-87 0 -154 20q-4 0 -6 2q-112 31 -180 97.5t-68 150.5q0 64 39.5 118.5t109.5 92.5q-69 37 -108 92t-39 117q0 114 119.5 193t288.5 79q161 0 278 -73t129 -179h-295 q-4 55 -36.5 92.5t-75.5 37.5q-47 0 -80 -43.5t-33 -106.5q0 -60 29.5 -101t74.5 -46h9q82 0 155 -21q2 0 4 -2h2q112 -31 180 -98t68 -152q0 -62 -40.5 -117t-110.5 -92q70 -39 109.5 -94t39.5 -117q0 -111 -119 -190.5t-290 -79.5q-161 0 -278.5 73t-129.5 179zM293 672 q5 -45 27 -79t57 -46q28 -4 31 -4h8q45 5 75.5 46.5t30.5 100.5q0 17 -2 21q-5 44 -27.5 78.5t-54.5 44.5l-2 2l-28 4q-47 0 -81 -43.5t-34 -106.5v-18z" />
<glyph unicode="&#xa8;" horiz-adv-x="835" d="M0 1133q0 47 42.5 77.5t104.5 30.5t105 -30.5t43 -77.5q0 -44 -43.5 -76.5t-104.5 -32.5t-104 32t-43 77zM440 1133q0 47 43 77.5t105 30.5t104.5 -30.5t42.5 -77.5q0 -45 -43 -77t-104 -32t-104.5 32.5t-43.5 76.5z" />
<glyph unicode="&#xa9;" horiz-adv-x="1585" d="M0 838q0 145 57 277.5t153 228t228.5 152t278.5 56.5t278 -56.5t228 -152t152.5 -227.5t56.5 -278t-56.5 -278.5t-152.5 -228.5t-228.5 -153t-277.5 -57t-278 57t-229 153t-153 229t-57 278zM123 840q0 -161 78.5 -297t214.5 -214.5t297 -78.5t297 78.5t214.5 214.5 t78.5 297t-78.5 297t-214.5 214.5t-297 78.5t-297 -78.5t-214.5 -214.5t-78.5 -297zM289 838q0 148 123.5 252t296.5 104q141 0 252 -70t151 -180h-291q-18 59 -47 93t-65 34q-54 0 -89.5 -67.5t-35.5 -165.5t36 -167t89 -69q71 0 110 125h291q-42 -108 -152 -177t-249 -69 q-173 0 -296.5 104.5t-123.5 252.5z" />
<glyph unicode="&#xaa;" horiz-adv-x="964" d="M0 1198q0 148 123.5 252t296.5 104q177 0 299 -106v106h123v-714h-123v106q-122 -106 -299 -106q-174 0 -297 104.5t-123 253.5zM295 1196q0 -98 35.5 -165.5t89.5 -67.5q53 0 90 68t37 165t-37.5 166.5t-89.5 69.5q-53 0 -89 -69t-36 -167z" />
<glyph unicode="&#xab;" horiz-adv-x="1564" d="M0 504v221l756 360l51 -110l-754 -361l754 -358l-51 -111zM653 502v221l756 360l51 -110l-753 -361l753 -358l-51 -111z" />
<glyph unicode="&#xac;" horiz-adv-x="841" d="M20 840v123h719v-123v-291h-123v291h-596z" />
<glyph unicode="&#xad;" horiz-adv-x="595" d="M0 840v123h504v-123h-504z" />
<glyph unicode="&#xae;" horiz-adv-x="1570" d="M2 831q0 145 57 278t153 229t229 153t278 57t277.5 -57t228.5 -153t152.5 -228.5t56.5 -278.5t-56.5 -278t-152.5 -227.5t-228 -152t-278 -56.5t-278.5 56.5t-228.5 152t-153 228t-57 277.5zM125 836q0 -161 78.5 -297t214.5 -214.5t297 -78.5t297 78.5t214.5 214.5 t78.5 297t-78.5 296.5t-214.5 214t-297 78.5t-297 -78.5t-214.5 -214t-78.5 -296.5zM309 485v715h123v-61q119 61 297 61q173 0 296.5 -61.5t123.5 -147.5q0 -84 -123 -147q121 -62 121 -148v-211h-293v209q0 36 -36 61t-89 25q-176 0 -297 62v-357h-123zM602 991 q0 -36 36.5 -61t90.5 -25q53 0 89 25t36 61t-36 61t-89 25q-54 0 -90.5 -25t-36.5 -61zM1147 485v211v-211z" />
<glyph unicode="&#xb0;" horiz-adv-x="1705" d="M0 1196q0 147 123 251.5t295 104.5q173 0 296.5 -104t123.5 -252q0 -149 -123 -253.5t-297 -104.5q-172 0 -295 104.5t-123 253.5zM295 1194q0 -98 35.5 -165.5t89.5 -67.5q53 0 90 68t37 165t-37.5 166.5t-89.5 69.5q-53 0 -89 -69t-36 -167z" />
<glyph unicode="&#xb1;" horiz-adv-x="915" d="M0 90v123h807v-123h-807zM0 614v123h344v342h121v-342h342v-123h-342v-342h-121v342h-344z" />
<glyph unicode="&#xb2;" horiz-adv-x="946" d="M0 838v123h420q53 0 90 68t37 165t-37.5 166.5t-89.5 69.5q-35 0 -64 -35.5t-47 -94.5h-291q42 112 152 182t250 70q173 0 296.5 -104t123.5 -252q0 -132 -103 -235h103v-123h-840z" />
<glyph unicode="&#xb3;" horiz-adv-x="954" d="M-2 1047h297q0 -35 35.5 -59.5t89.5 -24.5t89.5 24.5t35.5 59.5q0 36 -36 61t-89 25v124q54 0 90.5 25t36.5 61t-37 61.5t-90 25.5t-89 -25.5t-36 -61.5h-295q0 86 124 147.5t296 61.5q114 0 210.5 -28t153 -77t56.5 -106q0 -83 -121 -147q119 -63 119 -147 q0 -86 -123 -147.5t-297 -61.5q-173 0 -296.5 61.5t-123.5 147.5z" />
<glyph unicode="&#xb4;" horiz-adv-x="387" d="M2 1110l188 188l86 -86l-188 -188z" />
<glyph unicode="&#xb5;" horiz-adv-x="960" d="M0 481v482h295v-482q0 -149 37 -253.5t90 -104.5q52 0 88.5 104t36.5 254v482h172h123v-963h-123v141q-122 -141 -297 -141q-60 0 -127 23v-517h-295v975z" />
<glyph unicode="&#xb6;" horiz-adv-x="1196" d="M0 1196q0 148 123.5 252t296.5 104h692v-122h-127v-1532h-125v1532h-317v-1532h-123v940q-174 0 -297 104.5t-123 253.5z" />
<glyph unicode="&#xb7;" horiz-adv-x="401" d="M-2 854q0 47 42.5 78t104.5 31t105 -31t43 -78q0 -44 -43.5 -76.5t-104.5 -32.5t-104 32t-43 77z" />
<glyph unicode="&#xb8;" horiz-adv-x="514" d="M0 -236q53 0 90 69t37 167h289q0 -148 -122 -252t-294 -104v120z" />
<glyph unicode="&#xb9;" horiz-adv-x="391" d="M0 1432v122h150h122v-714h-122v592h-150z" />
<glyph unicode="&#xba;" horiz-adv-x="944" d="M-2 1198q0 147 123 251.5t295 104.5q173 0 296.5 -104t123.5 -252q0 -149 -123 -253.5t-297 -104.5q-172 0 -295 104.5t-123 253.5zM293 1196q0 -98 35.5 -165.5t89.5 -67.5q53 0 90 68t37 165t-37.5 166.5t-89.5 69.5q-53 0 -89 -69t-36 -167z" />
<glyph unicode="&#xbb;" horiz-adv-x="1568" d="M0 252l754 360l-754 359l51 110l756 -358v-221l-756 -361zM653 250l754 360l-754 359l52 110l755 -358v-221l-755 -361z" />
<glyph unicode="&#xbc;" horiz-adv-x="1697" d="M246 1432v122h149h123v-714h-123v592h-149zM418 59l866 1491l107 -61l-867 -1491zM1126 305v88l301 326h123v-326h31v-88h-31v-301h-123v301h-301zM1249 393h178v193z" />
<glyph unicode="&#xbd;" horiz-adv-x="1869" d="M-2 1430v122h149h123v-714h-123v592h-149zM170 57l866 1491l107 -61l-867 -1491zM860 0v123h420q53 0 90 68t37 165t-37.5 166.5t-89.5 69.5q-36 0 -64.5 -35t-46.5 -94h-290q42 112 152 182t249 70q173 0 296.5 -104.5t123.5 -252.5q0 -132 -103 -235h103v-123h-840z " />
<glyph unicode="&#xbe;" horiz-adv-x="1798" d="M-2 1047h297q0 -35 35.5 -59.5t89.5 -24.5t89.5 24.5t35.5 59.5q0 36 -36 61t-89 25v124q54 0 90.5 25t36.5 61t-37 61.5t-90 25.5t-89 -25.5t-36 -61.5h-295q0 86 124 147.5t296 61.5q114 0 210.5 -28t153 -77t56.5 -106q0 -83 -121 -147q119 -63 119 -147 q0 -86 -123 -147.5t-297 -61.5q-173 0 -296.5 61.5t-123.5 147.5zM473 57l866 1491l107 -61l-866 -1491zM1126 305v88l301 326h123v-326h31v-88h-31v-301h-123v301h-301zM1249 393h178v193z" />
<glyph unicode="&#xbf;" horiz-adv-x="921" d="M-14 406q-4 157 100 276t258 139v391l119 2v-518h-60q-54 -5 -90.5 -88t-36.5 -207q0 -122 36.5 -208.5t90.5 -86.5q51 0 88 85.5t37 207.5h297q-8 -176 -127 -295.5t-295 -119.5q-171 0 -296 123.5t-121 298.5zM254 1430q1 47 44 77.5t105 30.5q61 0 104 -31t42 -77 q1 -44 -42.5 -76.5t-103.5 -32.5q-63 1 -105 32.5t-44 76.5z" />
<glyph unicode="&#xc0;" d="M0 0l358 1554h123l361 -1554h-123l-148 639h-301l-147 -639h-123zM231 1804l86 86l189 -188l-86 -86zM299 762h244l-123 526z" />
<glyph unicode="&#xc1;" d="M0 0l358 1554h123l361 -1554h-123l-148 639h-301l-147 -639h-123zM299 762h244l-123 526zM328 1702l188 188l86 -86l-188 -188z" />
<glyph unicode="&#xc2;" d="M0 0l358 1554h123l361 -1554h-123l-148 639h-301l-147 -639h-123zM145 1702l189 188h174l188 -188l-86 -86l-190 188l-189 -188zM299 762h244l-123 526z" />
<glyph unicode="&#xc3;" d="M-111 1616q48 102 153.5 164.5t236.5 62.5t237 -61q21 -15 41 -15q68 0 107 107h282q-48 -102 -153.5 -165.5t-237.5 -63.5q-127 0 -223 57q-24 18 -51 18q-32 0 -60 -28t-45 -76h-287zM0 0l358 1554h123l361 -1554h-123l-148 639h-301l-147 -639h-123zM299 762h244 l-123 526z" />
<glyph unicode="&#xc4;" d="M0 0l358 1554h123l361 -1554h-123l-148 639h-301l-147 -639h-123zM45 1724q0 47 43 78t105 31t104.5 -31t42.5 -78q0 -44 -43 -76t-104 -32t-104.5 32t-43.5 76zM299 762h244l-123 526zM485 1724q0 47 43 78t105 31t104.5 -31t42.5 -78q0 -44 -43 -76t-104 -32t-104.5 32 t-43.5 76z" />
<glyph unicode="&#xc5;" d="M0 0l358 1554h123l361 -1554h-123l-148 639h-301l-147 -639h-123zM270 1763q0 61 43 104.5t105 43.5q61 0 104 -43t43 -105q0 -61 -42.5 -104t-104.5 -43t-105 43t-43 104zM299 762h244l-123 526zM375 1763q0 -19 12 -32t31 -13t32 13t13 32t-13 31t-32 12t-31 -12 t-12 -31z" />
<glyph unicode="&#xc6;" horiz-adv-x="1366" d="M4 0l361 1554h61h840v-122h-717v-594h717v-123h-717v-592h717v-123h-420h-123h-297v123v594h-133l-166 -717h-123zM322 840h104v448z" />
<glyph unicode="&#xc7;" horiz-adv-x="1159" d="M20 776q0 211 75.5 390.5t204 283.5t278.5 104q157 0 288 -112.5t201 -300.5h-274q-36 134 -93.5 212.5t-124.5 78.5q-70 0 -130 -88t-95 -239t-35 -329q0 -177 35 -327.5t95 -238t130 -87.5q67 0 124.5 77.5t93.5 209.5h274q-70 -186 -201.5 -298t-287.5 -112 q-150 0 -278.5 104.5t-204 283.5t-75.5 388zM309 -205q53 0 90 69t37 167h289q0 -148 -122 -252.5t-294 -104.5v121z" />
<glyph unicode="&#xc8;" horiz-adv-x="985" d="M20 0v123v1309v122h842v-122h-719v-594h719v-123h-719v-592h719v-123h-842zM266 1804l86 86l189 -188l-86 -86z" />
<glyph unicode="&#xc9;" horiz-adv-x="985" d="M20 0v123v1309v122h842v-122h-719v-594h719v-123h-719v-592h719v-123h-842zM354 1702l189 188l86 -86l-189 -188z" />
<glyph unicode="&#xca;" horiz-adv-x="985" d="M20 0v123v1309v122h842v-122h-719v-594h719v-123h-719v-592h719v-123h-842zM182 1702l189 188h174l188 -188l-86 -86l-190 188l-189 -188z" />
<glyph unicode="&#xcb;" horiz-adv-x="985" d="M20 0v123v1309v122h842v-122h-719v-594h719v-123h-719v-592h719v-123h-842zM78 1724q0 47 42.5 78t104.5 31t105 -31t43 -78q0 -44 -43.5 -76t-104.5 -32t-104 32t-43 76zM518 1724q0 47 43 78t105 31t104.5 -31t42.5 -78q0 -44 -43 -76t-104 -32t-104.5 32t-43.5 76z " />
<glyph unicode="&#xcc;" horiz-adv-x="245" d="M-133 1804l86 86l188 -188l-86 -86zM0 0v1554h123v-1554h-123z" />
<glyph unicode="&#xcd;" horiz-adv-x="245" d="M-29 1702l189 188l86 -86l-189 -188zM0 0v1554h123v-1554h-123z" />
<glyph unicode="&#xce;" horiz-adv-x="245" d="M-215 1702l188 188h174l189 -188l-86 -86l-191 188l-188 -188zM0 0v1554h123v-1554h-123z" />
<glyph unicode="&#xcf;" horiz-adv-x="245" d="M-307 1724q0 47 42.5 78t104.5 31t105 -31t43 -78q0 -44 -43.5 -76t-104.5 -32t-104 32t-43 76zM0 0v1554h123v-1554h-123zM133 1724q0 47 43 78t105 31t104.5 -31t42.5 -78q0 -44 -43 -76t-104 -32t-104.5 32t-43.5 76z" />
<glyph unicode="&#xd0;" horiz-adv-x="1400" d="M0 713v123h184v716h123v-290q76 136 189.5 213t242.5 77q150 0 278.5 -104t203.5 -283.5t75 -390.5q0 -209 -75 -388t-203.5 -283.5t-278.5 -104.5q-129 0 -242.5 77t-189.5 212v-289h-123v715h-184zM479 713q5 -163 41 -299.5t94 -214.5t125 -78q71 0 131.5 87.5 t95.5 238t35 327.5q0 178 -35 329t-95.5 239t-131.5 88q-101 0 -177 -172t-83 -422h168v-123h-168z" />
<glyph unicode="&#xd1;" horiz-adv-x="944" d="M-96 1622q48 102 153 164.5t236 62.5t237 -61q20 -14 41 -14q68 0 107 106h283q-48 -102 -154 -165.5t-238 -63.5q-127 0 -223 57q-24 18 -51 18q-32 0 -60 -28t-45 -76h-286zM20 0v1554h123l596 -1290v1290h123v-1554h-123l-596 1288v-1288h-123z" />
<glyph unicode="&#xd2;" horiz-adv-x="1224" d="M20 776q0 211 75.5 390.5t204 283.5t278.5 104t278 -104t202.5 -283.5t74.5 -390.5q0 -209 -74.5 -388t-202.5 -283.5t-278 -104.5t-278.5 104.5t-204 283.5t-75.5 388zM315 776q0 -177 35 -327.5t95 -238t130 -87.5q71 0 132 87.5t96 238t35 327.5q0 178 -35 329 t-96 239t-132 88q-70 0 -130 -88t-95 -239t-35 -329zM385 1804l86 86l188 -188l-86 -86z" />
<glyph unicode="&#xd3;" horiz-adv-x="1224" d="M20 776q0 211 75.5 390.5t204 283.5t278.5 104t278 -104t202.5 -283.5t74.5 -390.5q0 -209 -74.5 -388t-202.5 -283.5t-278 -104.5t-278.5 104.5t-204 283.5t-75.5 388zM315 776q0 -177 35 -327.5t95 -238t130 -87.5q71 0 132 87.5t96 238t35 327.5q0 178 -35 329 t-96 239t-132 88q-70 0 -130 -88t-95 -239t-35 -329zM481 1702l189 188l86 -86l-189 -188z" />
<glyph unicode="&#xd4;" horiz-adv-x="1224" d="M20 776q0 211 75.5 390.5t204 283.5t278.5 104t278 -104t202.5 -283.5t74.5 -390.5q0 -209 -74.5 -388t-202.5 -283.5t-278 -104.5t-278.5 104.5t-204 283.5t-75.5 388zM301 1702l188 188h175l188 -188l-86 -86l-191 188l-188 -188zM315 776q0 -177 35 -327.5t95 -238 t130 -87.5q71 0 132 87.5t96 238t35 327.5q0 178 -35 329t-96 239t-132 88q-70 0 -130 -88t-95 -239t-35 -329z" />
<glyph unicode="&#xd5;" horiz-adv-x="1224" d="M20 776q0 211 75.5 390.5t204 283.5t278.5 104t278 -104t202.5 -283.5t74.5 -390.5q0 -209 -74.5 -388t-202.5 -283.5t-278 -104.5t-278.5 104.5t-204 283.5t-75.5 388zM55 1616q48 102 153 164.5t236 62.5q132 0 238 -61q21 -15 41 -15q67 0 106 107h283 q-48 -102 -153.5 -165.5t-237.5 -63.5q-127 0 -223 57q-24 18 -52 18q-32 0 -59 -28t-45 -76h-287zM315 776q0 -177 35 -327.5t95 -238t130 -87.5q71 0 132 87.5t96 238t35 327.5q0 178 -35 329t-96 239t-132 88q-70 0 -130 -88t-95 -239t-35 -329z" />
<glyph unicode="&#xd6;" horiz-adv-x="1224" d="M20 776q0 211 75.5 390.5t204 283.5t278.5 104t278 -104t202.5 -283.5t74.5 -390.5q0 -209 -74.5 -388t-202.5 -283.5t-278 -104.5t-278.5 104.5t-204 283.5t-75.5 388zM203 1724q0 47 42.5 78t104.5 31t105 -31t43 -78q0 -44 -43.5 -76t-104.5 -32t-104 32t-43 76z M315 776q0 -177 35 -327.5t95 -238t130 -87.5q71 0 132 87.5t96 238t35 327.5q0 178 -35 329t-96 239t-132 88q-70 0 -130 -88t-95 -239t-35 -329zM643 1724q0 47 43 78t105 31t104.5 -31t42.5 -78q0 -44 -43 -76t-104 -32t-104.5 32t-43.5 76z" />
<glyph unicode="&#xd7;" horiz-adv-x="745" d="M0 995l88 88l244 -243l241 241l84 -86l-241 -241l241 -242l-86 -86l-241 242l-242 -242l-86 84l242 242z" />
<glyph unicode="&#xd8;" horiz-adv-x="1224" d="M0 776q0 211 75 390.5t203.5 283.5t278.5 104q192 0 346 -170l119 175l102 -68l-143 -213q131 -219 131 -502q0 -209 -74.5 -388t-202.5 -283.5t-278 -104.5q-184 0 -332 154l-108 -162l-103 67l131 195q-145 224 -145 522zM295 776q0 -132 22 -264l447 662 q-38 121 -91.5 189.5t-117.5 68.5q-70 0 -130 -88t-95 -239t-35 -329zM358 350q36 -107 87 -167t110 -60q71 0 131.5 87.5t95.5 238t35 327.5q0 116 -16 234z" />
<glyph unicode="&#xd9;" horiz-adv-x="1220" d="M20 776v778h295v-778q0 -177 35 -327.5t95 -238t130 -87.5q71 0 132 87.5t96 238t35 327.5v778h295v-778q0 -209 -74.5 -388t-202.5 -283.5t-278 -104.5t-278.5 104.5t-204 283.5t-75.5 388zM354 1804l86 86l189 -188l-86 -86z" />
<glyph unicode="&#xda;" horiz-adv-x="1220" d="M20 776v778h295v-778q0 -177 35 -327.5t95 -238t130 -87.5q71 0 132 87.5t96 238t35 327.5v778h295v-778q0 -209 -74.5 -388t-202.5 -283.5t-278 -104.5t-278.5 104.5t-204 283.5t-75.5 388zM492 1702l188 188l86 -86l-188 -188z" />
<glyph unicode="&#xdb;" horiz-adv-x="1220" d="M20 776v778h295v-778q0 -177 35 -327.5t95 -238t130 -87.5q71 0 132 87.5t96 238t35 327.5v778h295v-778q0 -209 -74.5 -388t-202.5 -283.5t-278 -104.5t-278.5 104.5t-204 283.5t-75.5 388zM301 1702l188 188h175l188 -188l-86 -86l-191 188l-188 -188z" />
<glyph unicode="&#xdc;" horiz-adv-x="1220" d="M20 776v778h295v-778q0 -177 35 -327.5t95 -238t130 -87.5q71 0 132 87.5t96 238t35 327.5v778h295v-778q0 -209 -74.5 -388t-202.5 -283.5t-278 -104.5t-278.5 104.5t-204 283.5t-75.5 388zM211 1724q0 47 42.5 78t104.5 31t105 -31t43 -78q0 -44 -43.5 -76t-104.5 -32 t-104 32t-43 76zM651 1724q0 47 43 78t105 31t104.5 -31t42.5 -78q0 -44 -43 -76t-104 -32t-104.5 32t-43.5 76z" />
<glyph unicode="&#xdd;" horiz-adv-x="921" d="M6 1554h123l299 -645l297 645h121l-357 -774v-6v-774h-122v778zM324 1702l188 188l86 -86l-188 -188z" />
<glyph unicode="&#xde;" horiz-adv-x="952" d="M0 -494v1457v469h123v-469h299q173 0 296.5 -141.5t123.5 -340.5t-123.5 -340t-296.5 -141h-299v-494h-123zM123 123h299q52 0 88.5 104t36.5 254t-36.5 254.5t-88.5 104.5h-299v-699v-18z" />
<glyph unicode="&#xdf;" horiz-adv-x="1480" d="M41 0v1282q0 114 119.5 193t288.5 79q172 0 290.5 -79t118.5 -193v-592q0 -61 34 -104t81 -43q169 0 288 -80t119 -193q0 -111 -119.5 -190.5t-287.5 -79.5q-163 0 -279.5 72.5t-128.5 179.5h293q6 -56 38.5 -93.5t76.5 -37.5q47 0 79.5 43.5t32.5 105.5t-32.5 106 t-79.5 44q-171 0 -290.5 79.5t-119.5 190.5v592q0 63 -32.5 106.5t-79.5 43.5t-81 -43.5t-34 -106.5v-1282h-295z" />
<glyph unicode="&#xe0;" horiz-adv-x="964" d="M20 481q0 199 123.5 340.5t296.5 141.5q176 0 299 -142v142h123v-963h-123v141q-122 -141 -299 -141q-173 0 -296.5 141t-123.5 340zM244 1214l86 86l188 -188l-86 -86zM315 481q0 -151 35.5 -254.5t89.5 -103.5q53 0 90 104.5t37 253.5t-37 254t-90 105 q-54 0 -89.5 -104t-35.5 -255z" />
<glyph unicode="&#xe1;" horiz-adv-x="964" d="M20 481q0 199 123.5 340.5t296.5 141.5q176 0 299 -142v142h123v-963h-123v141q-122 -141 -299 -141q-173 0 -296.5 141t-123.5 340zM315 481q0 -151 35.5 -254.5t89.5 -103.5q53 0 90 104.5t37 253.5t-37 254t-90 105q-54 0 -89.5 -104t-35.5 -255zM346 1110l189 188 l86 -86l-189 -188z" />
<glyph unicode="&#xe2;" horiz-adv-x="964" d="M20 481q0 199 123.5 340.5t296.5 141.5q176 0 299 -142v142h123v-963h-123v141q-122 -141 -299 -141q-173 0 -296.5 141t-123.5 340zM166 1110l188 188h174l189 -188l-86 -86l-191 188l-188 -188zM315 481q0 -151 35.5 -254.5t89.5 -103.5q53 0 90 104.5t37 253.5 t-37 254t-90 105q-54 0 -89.5 -104t-35.5 -255z" />
<glyph unicode="&#xe3;" horiz-adv-x="964" d="M-80 1024q48 102 153 164.5t236 62.5q132 0 238 -61q20 -14 41 -14q67 0 106 106h283q-48 -102 -153.5 -165.5t-237.5 -63.5q-128 0 -224 57q-24 18 -51 18q-32 0 -59 -28t-45 -76h-287zM20 481q0 199 123.5 340.5t296.5 141.5q176 0 299 -142v142h123v-963h-123v141 q-122 -141 -299 -141q-173 0 -296.5 141t-123.5 340zM315 481q0 -151 35.5 -254.5t89.5 -103.5q53 0 90 104.5t37 253.5t-37 254t-90 105q-54 0 -89.5 -104t-35.5 -255z" />
<glyph unicode="&#xe4;" horiz-adv-x="964" d="M20 481q0 199 123.5 340.5t296.5 141.5q176 0 299 -142v142h123v-963h-123v141q-122 -141 -299 -141q-173 0 -296.5 141t-123.5 340zM74 1133q0 47 42.5 77.5t104.5 30.5t105 -30.5t43 -77.5q0 -44 -43.5 -76.5t-104.5 -32.5t-104 32t-43 77zM315 481q0 -151 35.5 -254.5 t89.5 -103.5q53 0 90 104.5t37 253.5t-37 254t-90 105q-54 0 -89.5 -104t-35.5 -255zM514 1133q0 47 43 77.5t105 30.5t104.5 -30.5t42.5 -77.5q0 -45 -43 -77t-104 -32t-104.5 32.5t-43.5 76.5z" />
<glyph unicode="&#xe5;" horiz-adv-x="964" d="M20 481q0 199 123.5 340.5t296.5 141.5q176 0 299 -142v142h123v-963h-123v141q-122 -141 -299 -141q-173 0 -296.5 141t-123.5 340zM297 1171q0 62 43 105t104 43q62 0 105 -43.5t43 -104.5t-43 -104t-105 -43t-104.5 43t-42.5 104zM315 481q0 -151 35.5 -254.5 t89.5 -103.5q53 0 90 104.5t37 253.5t-37 254t-90 105q-54 0 -89.5 -104t-35.5 -255zM401 1171q0 -19 12 -32t31 -13t32 13t13 32t-13 31t-32 12t-31 -12t-12 -31z" />
<glyph unicode="&#xe6;" horiz-adv-x="1474" d="M0 481q0 199 123.5 340.5t296.5 141.5q170 0 299 -142v142h123v-25q67 23 125 23q150 0 264 -106.5t147 -268.5h-530q-6 -50 -6 -107q0 -151 35.5 -254.5t89.5 -103.5q58 0 98 129h272q-55 -117 -152.5 -184.5t-217.5 -67.5q-61 0 -125 22v-20h-123v141 q-122 -141 -299 -141q-173 0 -296.5 141t-123.5 340zM295 481q0 -151 35.5 -254.5t89.5 -103.5q53 0 90 104.5t37 253.5t-37 254t-90 105q-54 0 -89.5 -104t-35.5 -255zM870 709h195q-40 129 -98 129q-29 0 -54.5 -34t-42.5 -95z" />
<glyph unicode="&#xe7;" horiz-adv-x="888" d="M20 481q0 199 123.5 340.5t296.5 141.5q119 0 217.5 -68.5t153.5 -183.5h-272q-40 129 -99 129q-54 0 -89.5 -104t-35.5 -255t35.5 -254.5t89.5 -103.5q59 0 99 129h272q-55 -115 -153.5 -183.5t-217.5 -68.5q-173 0 -296.5 141t-123.5 340zM168 -203q53 0 90 69t37 167 h289q0 -148 -122 -252.5t-294 -104.5v121z" />
<glyph unicode="&#xe8;" horiz-adv-x="933" d="M20 481q0 200 123 341t299 141q148 0 262.5 -106t147.5 -267h-530q-7 -61 -7 -109q0 -149 37 -253.5t90 -104.5q29 0 54.5 34t42.5 95h272q-55 -114 -153.5 -183t-215.5 -69q-116 0 -213 64.5t-153 175t-56 241.5zM246 1212l86 86l188 -188l-86 -86zM344 711h195 q-17 61 -42.5 95t-54.5 34q-58 0 -98 -129z" />
<glyph unicode="&#xe9;" horiz-adv-x="933" d="M20 481q0 200 123 341t299 141q148 0 262.5 -106t147.5 -267h-530q-7 -61 -7 -109q0 -149 37 -253.5t90 -104.5q29 0 54.5 34t42.5 95h272q-55 -114 -153.5 -183t-215.5 -69q-116 0 -213 64.5t-153 175t-56 241.5zM344 711h195q-17 61 -42.5 95t-54.5 34q-58 0 -98 -129z M344 1110l188 188l86 -86l-188 -188z" />
<glyph unicode="&#xea;" horiz-adv-x="933" d="M20 481q0 200 123 341t299 141q148 0 262.5 -106t147.5 -267h-530q-7 -61 -7 -109q0 -149 37 -253.5t90 -104.5q29 0 54.5 34t42.5 95h272q-55 -114 -153.5 -183t-215.5 -69q-116 0 -213 64.5t-153 175t-56 241.5zM170 1110l188 188h174l189 -188l-86 -86l-191 188 l-188 -188zM344 711h195q-17 61 -42.5 95t-54.5 34q-58 0 -98 -129z" />
<glyph unicode="&#xeb;" horiz-adv-x="933" d="M20 481q0 200 123 341t299 141q148 0 262.5 -106t147.5 -267h-530q-7 -61 -7 -109q0 -149 37 -253.5t90 -104.5q29 0 54.5 34t42.5 95h272q-55 -114 -153.5 -183t-215.5 -69q-116 0 -213 64.5t-153 175t-56 241.5zM74 1133q0 47 42.5 77.5t104.5 30.5t105 -30.5t43 -77.5 q0 -44 -43.5 -76.5t-104.5 -32.5t-104 32t-43 77zM344 711h195q-17 61 -42.5 95t-54.5 34q-58 0 -98 -129zM514 1133q0 47 43 77.5t105 30.5t104.5 -30.5t42.5 -77.5q0 -45 -43 -77t-104 -32t-104.5 32.5t-43.5 76.5z" />
<glyph unicode="&#xec;" horiz-adv-x="376" d="M-43 1212l86 86l188 -188l-86 -86zM86 0v963h123v-963h-123z" />
<glyph unicode="&#xed;" horiz-adv-x="376" d="M51 1110l189 188l86 -86l-189 -188zM86 0v963h123v-963h-123z" />
<glyph unicode="&#xee;" horiz-adv-x="376" d="M-125 1110l188 188h175l188 -188l-86 -86l-190 188l-189 -188zM86 0v963h123v-963h-123z" />
<glyph unicode="&#xef;" horiz-adv-x="376" d="M-221 1133q0 47 42.5 77.5t104.5 30.5t105 -30.5t43 -77.5q0 -44 -43.5 -76.5t-104.5 -32.5t-104 32t-43 77zM86 0v963h123v-963h-123zM219 1133q0 47 43 77.5t105 30.5t104.5 -30.5t42.5 -77.5q0 -45 -43 -77t-104 -32t-104.5 32.5t-43.5 76.5z" />
<glyph unicode="&#xf0;" horiz-adv-x="927" d="M0 481q0 199 123.5 340.5t296.5 141.5q103 0 192 -56q-17 52 -22 76q-1 3 -19 68t-32 106l-103 -98l-71 78l141 135l-57 196l-27 86h61h62q0 -1 16 -53l41 -139l103 96l71 -78l-141 -133q18 -61 60 -201t61 -204l61 -205q23 -84 23 -156q0 -199 -123.5 -340t-296.5 -141 t-296.5 141t-123.5 340zM293 481q0 -149 37 -253.5t90 -104.5q52 0 88.5 104t36.5 254t-36.5 254.5t-88.5 104.5q-53 0 -90 -105t-37 -254z" />
<glyph unicode="&#xf1;" horiz-adv-x="954" d="M-82 1024q48 102 153 164.5t236 62.5q132 0 238 -61q20 -14 41 -14q67 0 106 106h283q-48 -102 -153.5 -165.5t-237.5 -63.5q-128 0 -224 57q-24 18 -51 18q-32 0 -59 -28t-45 -76h-287zM20 0v963h123v-142q123 142 299 142q173 0 296.5 -141.5t123.5 -340.5v-481h-295 v481q0 149 -36.5 255t-88.5 106t-89.5 -106.5t-37.5 -254.5v-481h-172h-123z" />
<glyph unicode="&#xf2;" horiz-adv-x="944" d="M20 481q0 199 123.5 340.5t296.5 141.5q176 0 299 -141t123 -341q0 -131 -56 -241.5t-153 -175t-213 -64.5q-173 0 -296.5 141t-123.5 340zM250 1212l86 86l188 -188l-86 -86zM315 481q0 -149 36 -253.5t89 -104.5q52 0 89.5 105t37.5 253t-37.5 254.5t-89.5 106.5 q-53 0 -89 -105.5t-36 -255.5z" />
<glyph unicode="&#xf3;" horiz-adv-x="944" d="M20 481q0 199 123.5 340.5t296.5 141.5q176 0 299 -141t123 -341q0 -131 -56 -241.5t-153 -175t-213 -64.5q-173 0 -296.5 141t-123.5 340zM315 481q0 -149 36 -253.5t89 -104.5q52 0 89.5 105t37.5 253t-37.5 254.5t-89.5 106.5q-53 0 -89 -105.5t-36 -255.5zM344 1110 l188 188l86 -86l-188 -188z" />
<glyph unicode="&#xf4;" horiz-adv-x="944" d="M20 481q0 199 123.5 340.5t296.5 141.5q176 0 299 -141t123 -341q0 -131 -56 -241.5t-153 -175t-213 -64.5q-173 0 -296.5 141t-123.5 340zM170 1110l188 188h174l189 -188l-86 -86l-191 188l-188 -188zM315 481q0 -149 36 -253.5t89 -104.5q52 0 89.5 105t37.5 253 t-37.5 254.5t-89.5 106.5q-53 0 -89 -105.5t-36 -255.5z" />
<glyph unicode="&#xf5;" horiz-adv-x="944" d="M-86 1024q48 102 153 164.5t236 62.5q132 0 238 -61q20 -14 41 -14q67 0 106 106h283q-48 -102 -153.5 -165.5t-237.5 -63.5q-128 0 -224 57q-24 18 -51 18q-32 0 -59 -28t-45 -76h-287zM20 481q0 199 123.5 340.5t296.5 141.5q176 0 299 -141t123 -341 q0 -131 -56 -241.5t-153 -175t-213 -64.5q-173 0 -296.5 141t-123.5 340zM315 481q0 -149 36 -253.5t89 -104.5q52 0 89.5 105t37.5 253t-37.5 254.5t-89.5 106.5q-53 0 -89 -105.5t-36 -255.5z" />
<glyph unicode="&#xf6;" horiz-adv-x="944" d="M20 481q0 199 123.5 340.5t296.5 141.5q176 0 299 -141t123 -341q0 -131 -56 -241.5t-153 -175t-213 -64.5q-173 0 -296.5 141t-123.5 340zM74 1133q0 47 42.5 77.5t104.5 30.5t105 -30.5t43 -77.5q0 -44 -43.5 -76.5t-104.5 -32.5t-104 32t-43 77zM315 481 q0 -149 36 -253.5t89 -104.5q52 0 89.5 105t37.5 253t-37.5 254.5t-89.5 106.5q-53 0 -89 -105.5t-36 -255.5zM514 1133q0 47 43 77.5t105 30.5t104.5 -30.5t42.5 -77.5q0 -45 -43 -77t-104 -32t-104.5 32.5t-43.5 76.5z" />
<glyph unicode="&#xf7;" horiz-adv-x="927" d="M0 684v123h807v-123h-807zM262 438q0 47 43 78t105 31t104.5 -31t42.5 -78q0 -44 -43 -76t-104 -32t-104.5 32t-43.5 76zM262 1053q0 47 43 77.5t105 30.5t104.5 -30.5t42.5 -77.5q0 -45 -43 -77t-104 -32t-104.5 32.5t-43.5 76.5z" />
<glyph unicode="&#xf8;" horiz-adv-x="978" d="M4 86l92 104q-86 127 -86 291q0 199 123.5 340.5t296.5 141.5q136 0 254 -97l80 90l92 -79l-90 -105q86 -125 86 -291q0 -131 -56 -241.5t-153 -175t-213 -64.5q-142 0 -254 98l-80 -94zM305 432l227 260q-38 148 -102 148q-54 0 -89.5 -104t-35.5 -255v-49zM328 272 q19 -70 45.5 -109.5t56.5 -39.5q53 0 90 104.5t37 253.5q0 35 -2 51z" />
<glyph unicode="&#xf9;" horiz-adv-x="925" d="M0 481v482h295v-482q0 -149 37 -253.5t90 -104.5q52 0 88.5 104t36.5 254v482h172h123v-963h-123v141q-122 -141 -297 -141q-116 0 -213 64.5t-153 175t-56 241.5zM215 1212l86 86l188 -188l-86 -86z" />
<glyph unicode="&#xfa;" horiz-adv-x="925" d="M0 481v482h295v-482q0 -149 37 -253.5t90 -104.5q52 0 88.5 104t36.5 254v482h172h123v-963h-123v141q-122 -141 -297 -141q-116 0 -213 64.5t-153 175t-56 241.5zM332 1110l188 188l86 -86l-188 -188z" />
<glyph unicode="&#xfb;" horiz-adv-x="925" d="M0 481v482h295v-482q0 -149 37 -253.5t90 -104.5q52 0 88.5 104t36.5 254v482h172h123v-963h-123v141q-122 -141 -297 -141q-116 0 -213 64.5t-153 175t-56 241.5zM143 1110l189 188h174l188 -188l-86 -86l-190 188l-189 -188z" />
<glyph unicode="&#xfc;" horiz-adv-x="925" d="M0 481v482h295v-482q0 -149 37 -253.5t90 -104.5q52 0 88.5 104t36.5 254v482h172h123v-963h-123v141q-122 -141 -297 -141q-116 0 -213 64.5t-153 175t-56 241.5zM51 1133q0 47 43 77.5t105 30.5t104.5 -30.5t42.5 -77.5q0 -45 -43 -77t-104 -32t-104.5 32.5t-43.5 76.5 zM492 1133q0 47 42.5 77.5t104.5 30.5t104.5 -30.5t42.5 -77.5q0 -45 -43 -77t-104 -32t-104 32t-43 77z" />
<glyph unicode="&#xfd;" horiz-adv-x="946" d="M35 963h123l297 -797l2 -2l297 799h123l-543 -1457h-123l184 494zM360 1110l189 188l86 -86l-189 -188z" />
<glyph unicode="&#xfe;" horiz-adv-x="964" d="M0 -494v1457v469h123v-469v-142q123 142 299 142q173 0 296.5 -141.5t123.5 -340.5t-123.5 -340t-296.5 -141q-177 0 -299 141v-635h-123zM295 481q0 -149 37 -253.5t90 -104.5q52 0 88.5 104t36.5 254t-36.5 254.5t-88.5 104.5q-53 0 -90 -105t-37 -254z" />
<glyph unicode="&#xff;" horiz-adv-x="946" d="M35 963h123l297 -797l2 -2l297 799h123l-543 -1457h-123l184 494zM80 1133q0 47 42.5 77.5t104.5 30.5t105 -30.5t43 -77.5q0 -44 -43.5 -76.5t-104.5 -32.5t-104 32t-43 77zM520 1133q0 47 43 77.5t105 30.5t104.5 -30.5t42.5 -77.5q0 -45 -43 -77t-104 -32t-104.5 32.5 t-43.5 76.5z" />
<glyph unicode="&#x152;" horiz-adv-x="1935" d="M0 776q0 211 75 390.5t203.5 283.5t278.5 104q128 0 240 -77t192 -213v168v122h842v-122h-719v-594h719v-123h-719v-592h719v-123h-842v123v166q-79 -136 -191.5 -212.5t-240.5 -76.5q-150 0 -278.5 104.5t-203.5 283.5t-75 388zM295 776q0 -178 35 -329t95 -238.5 t130 -87.5q71 0 131.5 87.5t95.5 238.5t35 329q0 177 -35 327.5t-95.5 238.5t-131.5 88q-70 0 -130 -88t-95 -238.5t-35 -327.5z" />
<glyph unicode="&#x153;" horiz-adv-x="1499" d="M0 481q0 200 123 341t299 141q154 0 272 -115q118 115 275 115q148 0 262 -106t147 -267h-530q-6 -52 -6 -109q0 -149 37 -253.5t90 -104.5q59 0 96 129h272q-55 -115 -153 -183.5t-215 -68.5q-157 0 -275 115q-118 -115 -272 -115q-116 0 -213 64.5t-153 175t-56 241.5z M295 481q0 -149 37 -253.5t90 -104.5q52 0 88.5 104t36.5 254t-36.5 254.5t-88.5 104.5q-53 0 -90 -105t-37 -254zM870 711h195q-37 129 -96 129t-99 -129z" />
<glyph unicode="&#x178;" horiz-adv-x="921" d="M6 1554h123l299 -645l297 645h121l-357 -774v-6v-774h-122v778zM63 1724q0 47 43 78t105 31t104.5 -31t42.5 -78q0 -44 -43 -76t-104 -32t-104.5 32t-43.5 76zM504 1724q0 47 42.5 78t104.5 31t105 -31t43 -78q0 -44 -43.5 -76t-104.5 -32t-104 32t-43 76z" />
<glyph unicode="&#x2c6;" horiz-adv-x="626" d="M0 1110l188 188h174l189 -188l-86 -86l-191 188l-188 -188z" />
<glyph unicode="&#x2dc;" horiz-adv-x="1150" d="M0 1024q48 102 153 164.5t236 62.5q132 0 238 -61q20 -14 41 -14q67 0 106 106h283q-48 -102 -153.5 -165.5t-237.5 -63.5q-128 0 -224 57q-24 18 -51 18q-32 0 -59 -28t-45 -76h-287z" />
<glyph unicode="&#x2000;" horiz-adv-x="955" />
<glyph unicode="&#x2001;" horiz-adv-x="1911" />
<glyph unicode="&#x2002;" horiz-adv-x="955" />
<glyph unicode="&#x2003;" horiz-adv-x="1911" />
<glyph unicode="&#x2004;" horiz-adv-x="637" />
<glyph unicode="&#x2005;" horiz-adv-x="477" />
<glyph unicode="&#x2006;" horiz-adv-x="318" />
<glyph unicode="&#x2007;" horiz-adv-x="318" />
<glyph unicode="&#x2008;" horiz-adv-x="238" />
<glyph unicode="&#x2009;" horiz-adv-x="382" />
<glyph unicode="&#x200a;" horiz-adv-x="106" />
<glyph unicode="&#x2010;" horiz-adv-x="595" d="M0 840v123h504v-123h-504z" />
<glyph unicode="&#x2011;" horiz-adv-x="595" d="M0 840v123h504v-123h-504z" />
<glyph unicode="&#x2012;" horiz-adv-x="595" d="M0 840v123h504v-123h-504z" />
<glyph unicode="&#x2013;" horiz-adv-x="739" d="M0 840v123h643v-123h-643z" />
<glyph unicode="&#x2014;" horiz-adv-x="927" d="M0 838v123h840v-123h-840z" />
<glyph unicode="&#x2018;" horiz-adv-x="382" d="M2 1284q0 19 6 31l8 16l113 213h123l-82 -153q54 -5 90.5 -35.5t36.5 -71.5q0 -44 -43 -76t-104 -32t-104.5 32t-43.5 76z" />
<glyph unicode="&#x2019;" horiz-adv-x="372" d="M0 1284q0 45 43 77t104 32t104.5 -32.5t43.5 -76.5q0 -19 -6 -31l-8 -16l-113 -213h-123l82 154q-54 5 -90.5 35t-36.5 71z" />
<glyph unicode="&#x201a;" horiz-adv-x="378" d="M0 106q0 45 43 77t104 32t104.5 -32.5t43.5 -76.5q0 -17 -6 -32l-8 -15l-115 -213h-121l80 154q-54 4 -89.5 34.5t-35.5 71.5z" />
<glyph unicode="&#x201c;" horiz-adv-x="724" d="M2 1284q0 19 6 31l8 16l113 213h123l-82 -153q54 -5 90.5 -35.5t36.5 -71.5q0 -44 -43 -76t-104 -32t-104.5 32t-43.5 76zM352 1284q0 19 6 31l9 16l112 213h123l-82 -153q54 -5 90.5 -35.5t36.5 -71.5q0 -44 -43 -76t-104 -32t-104.5 32t-43.5 76z" />
<glyph unicode="&#x201d;" horiz-adv-x="737" d="M0 1284q0 45 43 77t104 32t104.5 -32.5t43.5 -76.5q0 -19 -6 -31l-8 -16l-113 -213h-123l82 154q-54 5 -90.5 35t-36.5 71zM350 1284q0 44 43.5 76.5t104.5 32.5t104 -32t43 -77q0 -19 -6 -31l-8 -16l-113 -213h-123l82 154q-54 5 -90.5 35t-36.5 71z" />
<glyph unicode="&#x201e;" horiz-adv-x="739" d="M0 106q0 45 43 77t104 32t104.5 -32.5t43.5 -76.5q0 -18 -6 -30l-8 -17l-113 -213h-123l82 154q-54 5 -90.5 35t-36.5 71zM350 106q0 44 43.5 76.5t104.5 32.5t104 -32t43 -77q0 -18 -6 -30l-8 -17l-113 -213h-123l82 154q-54 5 -90.5 35t-36.5 71z" />
<glyph unicode="&#x2022;" horiz-adv-x="495" d="M0 764q0 60 58.5 102.5t140.5 42.5q83 0 141.5 -42.5t58.5 -102.5q0 -62 -58 -105t-142 -43q-82 0 -140.5 43.5t-58.5 104.5z" />
<glyph unicode="&#x2026;" horiz-adv-x="1251" d="M0 109q0 47 42.5 77.5t104.5 30.5t105 -30.5t43 -77.5q0 -44 -43.5 -76.5t-104.5 -32.5t-104 32t-43 77zM420 109q0 47 42.5 77.5t104.5 30.5t105 -30.5t43 -77.5q0 -44 -43.5 -76.5t-104.5 -32.5t-104 32t-43 77zM838 109q0 47 42.5 77.5t104.5 30.5t105 -30.5t43 -77.5 q0 -44 -43.5 -76.5t-104.5 -32.5t-104 32t-43 77z" />
<glyph unicode="&#x202f;" horiz-adv-x="382" />
<glyph unicode="&#x2039;" horiz-adv-x="913" d="M0 504v221l756 360l51 -110l-754 -361l754 -358l-51 -111z" />
<glyph unicode="&#x203a;" horiz-adv-x="935" d="M0 254l754 360l-754 359l51 110l756 -358v-221l-756 -361z" />
<glyph unicode="&#x205f;" horiz-adv-x="477" />
<glyph unicode="&#x20ac;" horiz-adv-x="1339" d="M0 840v123h193q45 256 195.5 423.5t344.5 167.5q158 0 290 -113t202 -300h-275q-36 133 -93.5 212t-123.5 79q-89 0 -157 -131.5t-93 -337.5h242v-123h-252q-2 -23 -2 -64q0 -12 1 -33t1 -32h211v-123h-201q25 -205 93 -335t157 -130q66 0 122.5 77t92.5 210h275 q-70 -186 -202 -298t-288 -112q-194 0 -343.5 166t-194.5 422h-158v123h141v65v64h-178z" />
<glyph unicode="&#x2122;" horiz-adv-x="1355" d="M0 1430v122h414v-122h-146v-592h-123v592h-145zM532 838l46 714h122l197 -544l197 544h123l45 -714h-123l-27 426l-154 -426h-122l-154 426l-27 -426h-123z" />
<glyph unicode="&#x25fc;" horiz-adv-x="962" d="M0 0v963h963v-963h-963z" />
<glyph unicode="&#xfb01;" horiz-adv-x="1081" d="M0 840v123h188v110q0 199 123.5 340t296.5 141q119 0 216.5 -68t152.5 -183h-272q-17 61 -42.5 95t-54.5 34q-53 0 -90 -105t-37 -254v-110h475v-123v-840h-120v840h-355v-840h-293v840h-188z" />
<glyph unicode="&#xfb02;" horiz-adv-x="1081" d="M0 840v123h186v110q0 131 56 241.5t153 175t213 64.5h232h123v-1554h-123v1432h-232q-53 0 -90 -105t-37 -254v-110h252v-123h-252v-840h-295v840h-186z" />
</font>
</defs>
</svg>
